<?xml version="1.0" encoding="UTF-8" standalone="no"?>
<svg
   xmlns:dc="http://purl.org/dc/elements/1.1/"
   xmlns:cc="http://creativecommons.org/ns#"
   xmlns:rdf="http://www.w3.org/1999/02/22-rdf-syntax-ns#"
   xmlns:svg="http://www.w3.org/2000/svg"
   xmlns="http://www.w3.org/2000/svg"
   xmlns:sodipodi="http://sodipodi.sourceforge.net/DTD/sodipodi-0.dtd"
   xmlns:inkscape="http://www.inkscape.org/namespaces/inkscape"
   version="1.1"
   x="0px"
   y="0px"
   viewBox="0 0 50.244438 50.187817"
   style="fill:#ec5d57"
   xml:space="preserve"
   id="svg4495"
   sodipodi:docname="logo-picto-pink-vectoriel.svg"
   inkscape:version="0.92.0 r15299"
   width="50.244438"
   height="50.187817"><metadata
     id="metadata4501"><rdf:RDF><cc:Work
         rdf:about=""><dc:format>image/svg+xml</dc:format><dc:type
           rdf:resource="http://purl.org/dc/dcmitype/StillImage" /><dc:title /></cc:Work></rdf:RDF></metadata><defs
     id="defs4499" /><sodipodi:namedview
     pagecolor="#ffffff"
     bordercolor="#666666"
     borderopacity="1"
     objecttolerance="10"
     gridtolerance="10"
     guidetolerance="10"
     inkscape:pageopacity="0"
     inkscape:pageshadow="2"
     inkscape:window-width="1333"
     inkscape:window-height="690"
     id="namedview4497"
     showgrid="false"
     inkscape:zoom="4.4158819"
     inkscape:cx="0.64337798"
     inkscape:cy="29.69643"
     inkscape:window-x="96"
     inkscape:window-y="15"
     inkscape:window-maximized="0"
     inkscape:current-layer="svg4495" /><g
     id="g4493"
     transform="translate(-19.946312,-19.809252)"><path
       d="M 59.9,53.7 70,26.3 V 26.2 26.1 C 70.5,24.3 70,22.6 68.7,21.3 67.4,20 65.7,19.5 63.9,20 H 63.8 63.7 L 36.3,30.1 c -1.6,0.5 -3,1.8 -3.4,3.5 -0.5,1.8 0,3.5 1.3,4.8 l 5.9,5.9 2.1,-2.1 -5.9,-5.9 c -1.1,-1.1 -0.6,-3 0.9,-3.3 l 26.9,-9.9 -15.6,15.5 -8.9,8.9 c -0.8,0.8 -0.8,2.1 0,2.8 0.8,0.8 2.1,0.8 2.8,0 L 67,25.8 57.2,52.7 c -0.4,1.5 -2.3,2 -3.3,0.9 l -5.9,-5.9 -2.1,2.1 5.9,5.9 c 1.3,1.3 3.1,1.7 4.8,1.3 1.6,-0.4 2.9,-1.6 3.3,-3.3 z"
       id="path4489"
       inkscape:connector-curvature="0" /></g><path
     inkscape:connector-curvature="0"
     d="m 8.796746,41.435805 c -0.4,-0.4 -0.4,-1 0,-1.4 l 6.62542,-6.625421 c 0.4,-0.4 1,-0.4 1.4,0 0.4,0.4 0.4,1 0,1.4 l -6.62542,6.625421 c -0.4,0.4 -1,0.4 -1.4,0 z"
     id="path4485-5"
     sodipodi:nodetypes="sssssss" /><path
     inkscape:connector-curvature="0"
     d="m 8.848693,49.887817 c -0.4,-0.4 -0.4,-1 0,-1.4 l 6.62542,-6.625421 c 0.4,-0.4 1,-0.4 1.4,0 0.4,0.4 0.4,1 0,1.4 l -6.62542,6.625421 c -0.4,0.4 -1,0.4 -1.4,0 z"
     id="path4485-5-1"
     sodipodi:nodetypes="sssssss" /><path
     inkscape:connector-curvature="0"
     d="m 0.3,41.424049 c -0.4,-0.4 -0.4,-1 0,-1.4 l 6.62542,-6.625421 c 0.4,-0.4 1,-0.4 1.4,0 0.4,0.4 0.4,1 0,1.4 L 1.7,41.424049 c -0.4,0.4 -1,0.4 -1.4,0 z"
     id="path4485-5-1-9"
     sodipodi:nodetypes="sssssss" /></svg>